<mxfile host="app.diagrams.net" modified="2023-11-21T11:33:05.436Z" agent="Mozilla/5.0 (Macintosh; Intel Mac OS X 10_15_7) AppleWebKit/537.36 (KHTML, like Gecko) Chrome/118.0.0.0 Safari/537.36" version="22.1.3" etag="om00sGI_KMBLI8lUysg8" type="github">
  <diagram name="第 1 页" id="IBhxvfkGAeg1p5E4bXM3">
    <mxGraphModel>
      <root>
        <mxCell id="0" />
        <mxCell id="1" parent="0" />
      </root>
    </mxGraphModel>
  </diagram>
</mxfile>
